<?xml version="1.0" encoding="iso-8859-1"?>
<!-- Generator: Adobe Illustrator 19.0.0, SVG Export Plug-In . SVG Version: 6.00 Build 0)  -->
<svg version="1.1" id="Layer_1" xmlns="http://www.w3.org/2000/svg" xmlns:xlink="http://www.w3.org/1999/xlink" x="0px" y="0px"
	 viewBox="0 0 512 512" style="enable-background:new 0 0 512 512;" xml:space="preserve">
<circle style="fill:#FFA0A9;" cx="256" cy="256" r="256"/>
<path style="fill:#FE5C69;" d="M510.595,282.91L340.537,112.852H183.596l-24.709,79.363L256,434.424l68.337,68.337
	C424.186,475.169,499.552,388.615,510.595,282.91z"/>
<path style="fill:#FFFCFF;" d="M256,77.576c-65.695,0-118.949,53.255-118.949,118.95S256,434.424,256,434.424
	S374.949,262.22,374.949,196.525S321.695,77.576,256,77.576z M256,276.687c-44.272,0-80.162-35.89-80.162-80.162
	s35.89-80.162,80.162-80.162s80.162,35.89,80.162,80.162S300.272,276.687,256,276.687z"/>
<path style="fill:#FCF2CF;" d="M374.949,196.525c0-65.695-53.255-118.95-118.949-118.95c-0.193,0-0.381,0.014-0.574,0.014v38.788
	c0.193-0.002,0.381-0.014,0.574-0.014c44.272,0,80.162,35.89,80.162,80.162s-35.89,80.162-80.162,80.162
	c-0.193,0-0.381-0.014-0.574-0.014V433.59c0.364,0.533,0.574,0.836,0.574,0.836S374.949,262.22,374.949,196.525z"/>
<rect x="239.554" y="229.176" style="fill:#FFDC58;" width="32.909" height="32.909"/>
<rect x="255.431" y="229.176" style="fill:#FFBE00;" width="17.029" height="32.909"/>
<polygon style="fill:#36514A;" points="256,176.159 204.283,240.805 307.717,240.805 "/>
<polygon style="fill:#21332E;" points="256,176.159 255.426,176.876 255.426,240.805 307.717,240.805 "/>
<polygon style="fill:#446864;" points="256,150.521 212.013,205.505 299.987,205.505 "/>
<polygon style="fill:#224A42;" points="256,150.521 255.426,151.238 255.426,205.503 299.987,205.503 "/>
<polygon style="fill:#53706C;" points="256,125.787 219.391,171.548 292.609,171.548 "/>
<polygon style="fill:#446864;" points="256,125.787 255.426,126.505 255.426,171.548 292.609,171.548 "/>
<g>
</g>
<g>
</g>
<g>
</g>
<g>
</g>
<g>
</g>
<g>
</g>
<g>
</g>
<g>
</g>
<g>
</g>
<g>
</g>
<g>
</g>
<g>
</g>
<g>
</g>
<g>
</g>
<g>
</g>
</svg>
